<svg width="761" height="588" viewBox="0 0 761 588" fill="none" xmlns="http://www.w3.org/2000/svg">
<path d="M261.095 587.963C245.65 584.289 230.094 581.312 214.833 576.94C159.346 561.373 109.68 529.812 72.0406 486.203C34.401 442.593 10.4568 388.867 3.19931 331.737C2.41838 327.614 1.34934 323.549 0 319.575V268.131C2.79482 254.535 5.222 240.829 8.38456 227.307C22.3544 168.43 54.1799 115.3 99.5113 75.1801C144.843 35.0599 201.468 9.9073 261.646 3.16016C266.419 2.36035 271.145 1.30541 275.804 0H316.256C334.091 3.67454 352.184 6.43045 369.725 11.0236C435.286 28.0703 492.813 67.4972 532.339 122.472L528.662 127.58C522.3 122.803 514.872 119.018 509.797 113.176C422.128 11.7586 279.408 -15.9842 162.908 46.0788C49.7183 106.341 -8.97291 234.803 20.3727 358.011C50.3802 484.194 160.114 573.963 289.116 575.69C378.109 576.903 452.025 542.289 510.606 475.045C515.497 469.386 522.594 465.638 528.662 461.008L532.339 465.123C529.471 469.349 526.933 473.832 523.697 477.764C478.668 534.475 414.163 572.451 342.696 584.326C338.663 585.299 334.696 586.526 330.818 588L261.095 587.963Z" fill="white"/>
<path d="M573.673 232.892V164.472L606.77 158.152C607.101 164.913 607.579 170.682 607.579 176.525C607.579 236.493 607.101 296.462 608.02 356.577C608.241 371.533 603.092 378.037 589.008 378.441C568.966 378.992 548.299 382.667 528.993 379.066C485.158 370.835 464.308 326.409 477.877 275.958C488.652 235.795 522.006 219.003 565.657 231.643C567.311 231.937 569.15 232.121 573.673 232.892ZM573.673 348.199C573.673 322.919 573.673 298.556 573.49 274.194C573.517 270.165 572.109 266.258 569.518 263.171C558.118 252.404 529.397 255.417 519.321 267.837C507.149 282.866 506.34 318.766 517.777 335.669C528.588 351.764 546.461 356.1 573.673 348.199Z" fill="white"/>
<path d="M216.966 212.021V261.407H293.566V292.898H216.341V377.412H181.296V182.772H303.863V212.168L216.966 212.021Z" fill="white"/>
<path d="M313.203 424.667L319.124 400.525C324.971 401.039 329.715 401.517 334.459 401.811C364.724 403.759 376.491 385.864 364.76 358.562C347.035 317.26 330.818 275.297 312.541 229.953C320.968 230.423 329.415 230.423 337.842 229.953C349.499 228.41 353.397 234.252 356.486 244.467C365.643 274.745 375.976 304.656 385.905 334.714H391.348C398.96 308.588 406.83 282.536 414.111 256.336C422.312 226.682 422.054 226.609 455.482 232.268C438.823 291.06 421.723 349.669 391.863 403.244C376.234 431.207 346.741 438.336 313.203 424.667Z" fill="white"/>
<path d="M725.954 288.745C729.631 250.787 707.126 252 659.503 258.798C658.18 250.604 656.856 242.41 654.759 229.218C678.883 228.961 701.315 226.572 723.196 229.218C745.076 231.864 759.05 248.546 760.19 273.055C761.735 306.53 760.595 340.116 760.595 378.845C732.095 378.845 704.221 380.866 676.75 378.221C653.987 376.016 641.926 358.929 640.859 336.22C640.04 326.041 642.91 315.906 648.945 307.663C654.979 299.421 663.777 293.62 673.735 291.318C682.607 289.007 691.71 287.701 700.874 287.423C709.252 287.388 717.626 287.83 725.954 288.745ZM727.278 313.916C708.633 312.226 690.688 306.861 678.699 323.396C675.279 328.137 675.868 340.777 679.766 344.966C693.115 359.37 710.582 353.123 727.278 352.315V313.916Z" fill="white"/>
</svg>
